<?xml version="1.0" standalone="no"?>
<!DOCTYPE svg PUBLIC "-//W3C//DTD SVG 20010904//EN"
 "http://www.w3.org/TR/2001/REC-SVG-20010904/DTD/svg10.dtd">
<svg version="1.0" xmlns="http://www.w3.org/2000/svg"
 width="16.000000pt" height="16.000000pt" viewBox="0 0 16.000000 16.000000"
 preserveAspectRatio="xMidYMid meet">
<metadata>
Created by potrace 1.11, written by Peter Selinger 2001-2013
</metadata>
<g transform="translate(0.000000,16.000000) scale(0.006667,-0.006667)"
fill="#000000" stroke="none">
<path d="M802 2273 l3 -128 95 0 95 0 3 128 3 127 -101 0 -101 0 3 -127z"/>
<path d="M1346 2180 c-79 -80 -87 -91 -75 -107 23 -28 121 -123 127 -123 8 0
182 173 182 181 0 8 -132 139 -139 139 -3 -1 -46 -41 -95 -90z"/>
<path d="M262 2171 l-70 -69 94 -93 94 -94 71 71 70 71 -90 91 c-50 51 -92 92
-95 92 -3 0 -36 -31 -74 -69z"/>
<path d="M770 1982 c-257 -67 -420 -342 -355 -597 21 -81 45 -131 95 -193 41
-52 45 -75 20 -107 -16 -20 -32 -136 -27 -192 13 -144 102 -279 226 -342 97
-50 116 -51 733 -51 547 1 580 2 634 20 123 43 213 122 266 236 69 147 37 341
-76 459 -47 50 -132 103 -191 120 -52 16 -52 16 -59 63 -25 184 -146 352 -315
437 -87 43 -140 56 -246 60 -90 4 -205 -12 -222 -29 -3 -3 -22 7 -42 23 -129
101 -285 134 -441 93z m243 -206 c43 -19 45 -28 14 -53 -68 -55 -140 -191
-159 -302 l-12 -71 -41 -11 c-22 -6 -59 -21 -82 -34 l-43 -23 -30 41 c-115
156 -47 387 133 456 62 23 161 22 220 -3z m528 -86 c118 -23 208 -94 261 -206
33 -71 56 -184 52 -256 l-3 -48 37 0 c114 -2 222 -45 265 -107 38 -55 46 -83
43 -149 -4 -104 -70 -188 -167 -214 -25 -7 -238 -10 -601 -8 l-563 3 -45 27
c-101 60 -139 158 -106 272 29 98 125 160 269 173 l67 6 0 61 c0 61 20 164 42
221 68 176 244 264 449 225z"/>
<path d="M0 1600 l0 -100 120 0 120 0 0 100 0 100 -120 0 -120 0 0 -100z"/>
<path d="M192 1118 l-102 -90 66 -74 c73 -81 63 -79 129 -23 16 14 55 48 85
76 l56 49 -59 70 c-32 38 -61 72 -65 76 -4 3 -53 -34 -110 -84z"/>
<path d="M628 270 l-127 -129 71 -71 72 -71 129 129 130 130 -72 71 c-39 39
-72 71 -74 70 -1 0 -59 -59 -129 -129z"/>
<path d="M1125 270 l-130 -130 71 -70 70 -71 124 125 c69 69 126 129 127 133
2 5 -27 39 -65 76 l-67 67 -130 -130z"/>
<path d="M1620 276 c-69 -69 -126 -129 -127 -133 -2 -5 27 -39 65 -76 l67 -67
130 130 130 130 -71 70 -70 71 -124 -125z"/>
</g>
</svg>
